/* XPM */
static char * color_background_89_3_xpm[] = {
"64 64 2 1",
" 	c #DED7CF",
".	c #B3AFA7",
"            ........                        ........            ",
"          ............                    ............          ",
"       ..................              ..................       ",
"    ........................        ........................    ",
"   ............  ............      ............  ............   ",
"   ............  ............      ............  ............   ",
"   ...........    ...........      ...........    ...........   ",
"  ............    ............    ............    ............  ",
"  ............    ............    ............    ............  ",
"  ...........      ...........    ...........      ...........  ",
" ............      ............  ............      ............ ",
" ............      ............  ............      ............ ",
"............        ........................        ............",
".........              ..................              .........",
"......                    ............                    ......",
"....                        ........                        ....",
"....                        ........                        ....",
"......                    ............                    ......",
".........              ..................              .........",
"............        ........................        ............",
" ............      ............  ............      ............ ",
" ............      ............  ............      ............ ",
"  ...........      ...........    ...........      ...........  ",
"  ............    ............    ............    ............  ",
"  ............    ............    ............    ............  ",
"   ...........    ...........      ...........    ...........   ",
"   ............  ............      ............  ............   ",
"   ............  ............      ............  ............   ",
"    ........................        ........................    ",
"       ..................              ..................       ",
"          ............                    ............          ",
"            ........                        ........            ",
"            ........                        ........            ",
"          ............                    ............          ",
"       ..................              ..................       ",
"    ........................        ........................    ",
"   ............  ............      ............  ............   ",
"   ............  ............      ............  ............   ",
"   ...........    ...........      ...........    ...........   ",
"  ............    ............    ............    ............  ",
"  ............    ............    ............    ............  ",
"  ...........      ...........    ...........      ...........  ",
" ............      ............  ............      ............ ",
" ............      ............  ............      ............ ",
"............        ........................        ............",
".........              ..................              .........",
"......                    ............                    ......",
"....                        ........                        ....",
"....                        ........                        ....",
"......                    ............                    ......",
".........              ..................              .........",
"............        ........................        ............",
" ............      ............  ............      ............ ",
" ............      ............  ............      ............ ",
"  ...........      ...........    ...........      ...........  ",
"  ............    ............    ............    ............  ",
"  ............    ............    ............    ............  ",
"   ...........    ...........      ...........    ...........   ",
"   ............  ............      ............  ............   ",
"   ............  ............      ............  ............   ",
"    ........................        ........................    ",
"       ..................              ..................       ",
"          ............                    ............          ",
"            ........                        ........            "};
