/* XPM */
static char * color_background_62_xpm[] = {
"64 64 2 1",
" 	c #9EBBE6",
".	c #B5D0E6",
" .............   .............   .............   .............  ",
"............... ............... ............... ............... ",
"..  .......  .. ..  .......  .. ..  .......  .. ..  .......  .. ",
"..  .......  .. ..  .......  .. ..  .......  .. ..  .......  .. ",
"............... ............... ............... ............... ",
"............... ............... ............... ............... ",
"............... ............... ............... ............... ",
"............... ............... ............... ............... ",
"............... ............... ............... ............... ",
"............... ............... ............... ............... ",
"............... ............... ............... ............... ",
"..  .......  .. ..  .......  .. ..  .......  .. ..  .......  .. ",
"..  .......  .. ..  .......  .. ..  .......  .. ..  .......  .. ",
"............... ............... ............... ............... ",
" .............   .............   .............   .............  ",
"                                                                ",
" .............   .............   .............   .............  ",
"............... ............... ............... ............... ",
"..  .......  .. ..  .......  .. ..  .......  .. ..  .......  .. ",
"..  .......  .. ..  .......  .. ..  .......  .. ..  .......  .. ",
"............... ............... ............... ............... ",
"............... ............... ............... ............... ",
"............... ............... ............... ............... ",
"............... ............... ............... ............... ",
"............... ............... ............... ............... ",
"............... ............... ............... ............... ",
"............... ............... ............... ............... ",
"..  .......  .. ..  .......  .. ..  .......  .. ..  .......  .. ",
"..  .......  .. ..  .......  .. ..  .......  .. ..  .......  .. ",
"............... ............... ............... ............... ",
" .............   .............   .............   .............  ",
"                                                                ",
" .............   .............   .............   .............  ",
"............... ............... ............... ............... ",
"..  .......  .. ..  .......  .. ..  .......  .. ..  .......  .. ",
"..  .......  .. ..  .......  .. ..  .......  .. ..  .......  .. ",
"............... ............... ............... ............... ",
"............... ............... ............... ............... ",
"............... ............... ............... ............... ",
"............... ............... ............... ............... ",
"............... ............... ............... ............... ",
"............... ............... ............... ............... ",
"............... ............... ............... ............... ",
"..  .......  .. ..  .......  .. ..  .......  .. ..  .......  .. ",
"..  .......  .. ..  .......  .. ..  .......  .. ..  .......  .. ",
"............... ............... ............... ............... ",
" .............   .............   .............   .............  ",
"                                                                ",
" .............   .............   .............   .............  ",
"............... ............... ............... ............... ",
"..  .......  .. ..  .......  .. ..  .......  .. ..  .......  .. ",
"..  .......  .. ..  .......  .. ..  .......  .. ..  .......  .. ",
"............... ............... ............... ............... ",
"............... ............... ............... ............... ",
"............... ............... ............... ............... ",
"............... ............... ............... ............... ",
"............... ............... ............... ............... ",
"............... ............... ............... ............... ",
"............... ............... ............... ............... ",
"..  .......  .. ..  .......  .. ..  .......  .. ..  .......  .. ",
"..  .......  .. ..  .......  .. ..  .......  .. ..  .......  .. ",
"............... ............... ............... ............... ",
" .............   .............   .............   .............  ",
"                                                                "};
