/* XPM */
static char * color_background_86_xpm[] = {
"64 64 2 1",
" 	c #FF86A6",
".	c #FF9BAB",
"                                                                ",
"                                                                ",
"  ....                                                    ....  ",
"  ....                                                    ....  ",
"........                  ....    ....                  ........",
"........                  ....    ....                  ........",
"........                ................                ........",
"........                ................                ........",
"........                ................                ........",
"........                ................                ........",
"......                  ................                  ......",
"......                  ................                  ......",
"....                      ............                      ....",
"....                      ............                      ....",
"..                          ........                          ..",
"..                          ........                          ..",
"                              ....                              ",
"                              ....                              ",
"                                                                ",
"                                                                ",
"                                                                ",
"                                                                ",
"                                                                ",
"                                                                ",
"            ....    ....                                        ",
"            ....    ....                                        ",
"          ................                  ....    ....        ",
"          ................                  ....    ....        ",
"          ................                ................      ",
"          ................                ................      ",
"          ................                ................      ",
"          ................                ................      ",
"            ............                  ................      ",
"            ............                  ................      ",
"              ........                      ............        ",
"              ........                      ............        ",
"                ....                          ........          ",
"                ....                          ........          ",
"                                                ....            ",
"                                                ....            ",
"                                                                ",
"                                                                ",
"                                                                ",
"                                                                ",
"                                                                ",
"                                                                ",
"      ....    ....                                              ",
"      ....    ....                                              ",
"    ................                ....    ....                ",
"    ................                ....    ....                ",
"    ................              ................              ",
"    ................              ................              ",
"    ................              ................              ",
"    ................              ................              ",
"      ............                ................              ",
"      ............                ................              ",
"        ........                    ............                ",
"        ........                    ............                ",
"          ....                        ........                  ",
"          ....                        ........                  ",
"                                        ....                    ",
"                                        ....                    ",
"                                                                ",
"                                                                "};
