/* XPM */
static char * black_background_26_2_xpm[] = {
"64 64 2 1",
" 	c #000000",
".	c #FFFFFF",
"      ....      ......    ......      ....      ......    ......",
"     ......     .....      .....     ......     .....      .....",
"    ........    ....        ....    ........    ....        ....",
"   ..........   ...          ...   ..........   ...          ...",
"  ............  ..            ..  ............  ..            ..",
" .............. .              . .............. .              .",
"................                ................                ",
"................                ................                ",
"................                ................                ",
"................                ................                ",
" .............. .              . .............. .              .",
"  ............  ..            ..  ............  ..            ..",
"   ..........   ...          ...   ..........   ...          ...",
"    ........    ....        ....    ........    ....        ....",
"     ......     .....      .....     ......     .....      .....",
"      ....      ......    ......      ....      ......    ......",
"......    ......      ....      ......    ......      ....      ",
".....      .....     ......     .....      .....     ......     ",
"....        ....    ........    ....        ....    ........    ",
"...          ...   ..........   ...          ...   ..........   ",
"..            ..  ............  ..            ..  ............  ",
".              . .............. .              . .............. ",
"                ................                ................",
"                ................                ................",
"                ................                ................",
"                ................                ................",
".              . .............. .              . .............. ",
"..            ..  ............  ..            ..  ............  ",
"...          ...   ..........   ...          ...   ..........   ",
"....        ....    ........    ....        ....    ........    ",
".....      .....     ......     .....      .....     ......     ",
"......    ......      ....      ......    ......      ....      ",
"      ....      ......    ......      ....      ......    ......",
"     ......     .....      .....     ......     .....      .....",
"    ........    ....        ....    ........    ....        ....",
"   ..........   ...          ...   ..........   ...          ...",
"  ............  ..            ..  ............  ..            ..",
" .............. .              . .............. .              .",
"................                ................                ",
"................                ................                ",
"................                ................                ",
"................                ................                ",
" .............. .              . .............. .              .",
"  ............  ..            ..  ............  ..            ..",
"   ..........   ...          ...   ..........   ...          ...",
"    ........    ....        ....    ........    ....        ....",
"     ......     .....      .....     ......     .....      .....",
"      ....      ......    ......      ....      ......    ......",
"......    ......      ....      ......    ......      ....      ",
".....      .....     ......     .....      .....     ......     ",
"....        ....    ........    ....        ....    ........    ",
"...          ...   ..........   ...          ...   ..........   ",
"..            ..  ............  ..            ..  ............  ",
".              . .............. .              . .............. ",
"                ................                ................",
"                ................                ................",
"                ................                ................",
"                ................                ................",
".              . .............. .              . .............. ",
"..            ..  ............  ..            ..  ............  ",
"...          ...   ..........   ...          ...   ..........   ",
"....        ....    ........    ....        ....    ........    ",
".....      .....     ......     .....      .....     ......     ",
"......    ......      ....      ......    ......      ....      "};
