/* XPM */
static char * door_xpm[] = {
"64 64 2 1",
" 	c #E8E8E8",
".	c #B3B3B3",
"                                                                ",
"                                                                ",
"                                                                ",
"                                                                ",
"    ..........................................................  ",
"    ..........................................................  ",
"    ..........................................................  ",
"    ..........................................................  ",
"    ..........................................................  ",
"    ..........................................................  ",
"    ......                                              ......  ",
"    ......                                              ......  ",
"    ......                                              ......  ",
"    ......                                              ......  ",
"    ......                                              ......  ",
"    ......                                              ......  ",
"    ......      ..................................      ......  ",
"    ......      ..................................      ......  ",
"    ......      ..................................      ......  ",
"    ......      ..................................      ......  ",
"    ......      ..................................      ......  ",
"    ......      ..................................      ......  ",
"    ......      ......                      ......      ......  ",
"    ......      ......                      ......      ......  ",
"    ......      ......                      ......      ......  ",
"    ......      ......                      ......      ......  ",
"    ......      ......                      ......      ......  ",
"    ......      ......                      ......      ......  ",
"    ......      ......      ..........      ......      ......  ",
"    ......      ......      ..........      ......      ......  ",
"    ......      ......      ..........      ......      ......  ",
"    ......      ......      ..........      ......      ......  ",
"    ......      ......      ..........      ......      ......  ",
"    ......      ......      ..........      ......      ......  ",
"    ......      ......      ..........      ......      ......  ",
"    ......      ......      ..........      ......      ......  ",
"    ......      ......      ..........      ......      ......  ",
"    ......      ......      ..........      ......      ......  ",
"    ......      ......                      ......      ......  ",
"    ......      ......                      ......      ......  ",
"    ......      ......                      ......      ......  ",
"    ......      ......                      ......      ......  ",
"    ......      ......                      ......      ......  ",
"    ......      ......                      ......      ......  ",
"    ......      ..................................      ......  ",
"    ......      ..................................      ......  ",
"    ......      ..................................      ......  ",
"    ......      ..................................      ......  ",
"    ......      ..................................      ......  ",
"    ......      ..................................      ......  ",
"    ......                                              ......  ",
"    ......                                              ......  ",
"    ......                                              ......  ",
"    ......                                              ......  ",
"    ......                                              ......  ",
"    ......                                              ......  ",
"    ..........................................................  ",
"    ..........................................................  ",
"    ..........................................................  ",
"    ..........................................................  ",
"    ..........................................................  ",
"    ..........................................................  ",
"                                                                ",
"                                                                "};
