/* XPM */
static char * nounoursvert_xpm[] = {
"160 20 8 1",
" 	c None",
".	c #010500",
"+	c #02FF00",
"@	c #FFFFFF",
"#	c #FFFF00",
"$	c #FF3063",
"%	c #FFCF31",
"&	c #D2D1D2",
"                                                                                                                                                                ",
"     ..     ..              ..                                      ..               ..     ..               ..                                      ..         ",
"    .++.   .++.            .++.                      @             .++.             .++.   .++.             .++.              @                     .++.        ",
"   .+@.......@+.     .. ....@+.                      @       .. ....@+.            .+@.......@+.            .+@.... ..        @                     .+@.... ..  ",
"   .+.+++++++.+.    .++.+++++++.    @    .......   @@@@@    .++.+++++++.           .+.+++++++.+.      #    .+++++++.++.     @@@@@   .......        .+++++++.++. ",
"    .+++++++++.     .+@+++++..++.   @   .++.++$+.    @      .+@+++++..++.   #       .+++++++++.       #   .++..+++++@+.       @    .+$++.++.  #   .++..+++++%+. ",
"   .+..+++++..+.    .++++++@..+$. @@@@@ +@.+..$++.   @      .++++++@..+$.  ###     .+..+++++..+.    ##### .$+..@++++++.       @   .++$..+.@+ ###  .$+..@++++++. ",
"   .+..@@.@@..+.     .+..@.@@@$+.   @   +.++..+++.           .+..@.@@@$+.   #      .+..@@.@@..+.      #   .+$@@@.@..+.            .+++..++.+  #   .+$@@@.@..+.  ",
"   .$$+@...@+$$.     .+..@...@++.   @   ..+++@@++.           .+..@...@++.          .$$+@...@+$$.      #   .++@...@..+.            .++@@+++..      .++@...@..+.  ",
"   .++++@@@++++.     .+$@..@@+++.        .+++@.@+.       @   .+$@..@@+++.          .++++@@@++++.          .+++@@..@$+.    #       .+@.@+++.       .+++@@..@$+.  ",
"    .+++++++++.      .$++@@@++..  #      .+++..@+.      @@@  .$++@@@++..            .+++++++++.         @  ..++@@@++$.   ###     &.+@..+++.        ..++@@@++$.  ",
"     .........        .+++++..   ###     .+++@.@+.       @    .+++++..     @         .........         @@@ @&..+++++.     #      &.+@.@+++.    @   @&..+++++.   ",
"       @  &            .....      #     ..+++@@++.             .....       @           @  &             @  &   .....          @  @.++@@+++..   @   &   .....    ",
"        &&@                 &           +.++..+++.   #              &    @@@@@          &&@                 @&               @@@@&.+++..++.+ @@@@@  @&          ",
"       @  &               &&@           +@.+..$++.@ ###           &&@      @           @  &                 &&                @ & .++$..+.@+   @    &&          ",
"        &&@               @  &          .++.++$+..@  #            @  &     @            &&@                @  &                 @&..+$++.++.   @   @  &         ",
"       @  &                &&@           ........ &                &&@                 @  &                 &&@                && &........         &&@         ",
"        &&@                @  &                 &&@                @  &                 &&@                @  &                 &&@                @  &         ",
"          @                 &&@                @  &                 &&@                   @                 &&@                @  &                 &&@         ",
"       ......              ......              ......              ......              ......              ......              ......              ......       "};
